<svg xmlns="http://www.w3.org/2000/svg" width="24" height="24" viewBox="0 0 96 96" role="img" aria-label="Unsupported kneeling">
  <title>Unsupported kneeling</title>
  <mask id="hft-uk-0" maskUnits="userSpaceOnUse" x="0" y="0" width="96" height="96"><rect width="96" height="96" fill="#fff"/><polygon points="33.78,39.79 68.73,38.54 68.99,42.21 49.76,44.11 47.82,49.41 44.15,49.67 44.75,45.02 34.32,47.59" fill="#000"/><polyline points="33.78,39.79 68.73,38.54 68.99,42.21 49.76,44.11 47.82,49.41 44.15,49.67 44.75,45.02 34.32,47.59 33.78,39.79" fill="none" stroke="#000" stroke-width="3.2" stroke-linecap="round" stroke-linejoin="round"/><polyline points="67.94,40.44 87.22,39.09" fill="none" stroke="#000" stroke-width="6.328" stroke-linecap="round" stroke-linejoin="round"/><polyline points="51.04,36.09 66.64,35" fill="none" stroke="#000" stroke-width="6.512" stroke-linecap="round" stroke-linejoin="round"/><polyline points="67.99,34.54 70.29,34.38" fill="none" stroke="#000" stroke-width="8.72" stroke-linecap="round" stroke-linejoin="round"/><polyline points="55.18,35.99 55.41,39.2" fill="none" stroke="#000" stroke-width="5.224" stroke-linecap="round" stroke-linejoin="round"/><polyline points="62.98,35.44 63.21,38.65" fill="none" stroke="#000" stroke-width="5.224" stroke-linecap="round" stroke-linejoin="round"/></mask>
  <g mask="url(#hft-uk-0)"><polyline points="4,87 92,87" fill="none" stroke="#7b7b7b" stroke-width="2" stroke-linecap="round" stroke-linejoin="round"/><circle cx="41" cy="30" r="6.5" fill="#ca46a6"/><polyline points="30,64 35,44" fill="none" stroke="#ca46a6" stroke-width="11" stroke-linecap="round" stroke-linejoin="round"/><polyline points="30,65 46,85 24,86" fill="none" stroke="#ca46a6" stroke-width="8" stroke-linecap="round" stroke-linejoin="round"/><polyline points="31,64 54,60" fill="none" stroke="#ca46a6" stroke-width="8" stroke-linecap="round" stroke-linejoin="round"/><polyline points="54,60 56,86" fill="none" stroke="#ca46a6" stroke-width="7" stroke-linecap="round" stroke-linejoin="round"/><polyline points="37,45 52,56" fill="none" stroke="#ca46a6" stroke-width="7" stroke-linecap="round" stroke-linejoin="round"/><polyline points="52,56 60,45" fill="none" stroke="#ca46a6" stroke-width="6" stroke-linecap="round" stroke-linejoin="round"/><polyline points="33,46 27,52" fill="none" stroke="#ca46a6" stroke-width="7" stroke-linecap="round" stroke-linejoin="round"/><polyline points="27,52 45,50" fill="none" stroke="#ca46a6" stroke-width="6" stroke-linecap="round" stroke-linejoin="round"/></g>
  <polygon points="33.78,39.79 68.73,38.54 68.99,42.21 49.76,44.11 47.82,49.41 44.15,49.67 44.75,45.02 34.32,47.59" fill="#ca46a6"/>
  <polyline points="67.94,40.44 87.22,39.09" fill="none" stroke="#ca46a6" stroke-width="3.128" stroke-linecap="round" stroke-linejoin="round"/>
  <polyline points="51.04,36.09 66.64,35" fill="none" stroke="#ca46a6" stroke-width="3.312" stroke-linecap="round" stroke-linejoin="round"/>
  <polyline points="67.99,34.54 70.29,34.38" fill="none" stroke="#ca46a6" stroke-width="5.52" stroke-linecap="round" stroke-linejoin="round"/>
  <polyline points="55.18,35.99 55.41,39.2" fill="none" stroke="#ca46a6" stroke-width="2.024" stroke-linecap="round" stroke-linejoin="round"/>
  <polyline points="62.98,35.44 63.21,38.65" fill="none" stroke="#ca46a6" stroke-width="2.024" stroke-linecap="round" stroke-linejoin="round"/>
</svg>
